<?xml version="1.0" encoding="utf-8"?>
<!-- Generator: Adobe Illustrator 24.0.1, SVG Export Plug-In . SVG Version: 6.00 Build 0)  -->
<svg version="1.1" id="Layer_1" xmlns="http://www.w3.org/2000/svg" xmlns:xlink="http://www.w3.org/1999/xlink" x="0px" y="0px"
	 viewBox="0 0 500 116.62" style="enable-background:new 0 0 500 116.62;" xml:space="preserve">
<style type="text/css">
	.st0{fill:#1B1E39;}
	.st1{fill:#0085FF;}
	.st2{fill:#00FDC0;}
	.st3{opacity:0.36;fill:#1B1E39;enable-background:new    ;}
	.st4{opacity:0.36;fill:#FFFFFF;enable-background:new    ;}
	.st5{fill:#5B899E;}
	.st6{fill:#FFFFFF;}
	.st7{fill:#8F8F8F;}
	.st8{fill:#714B67;}
	.st9{fill:url(#SVGID_1_);}
</style>
<g id="Layer_1_1_">
	<g>
		<path class="st0" d="M95.26,64.94l-3.18,4.11h-15.4v-16h18.54l-3.2,4.16H81.65v1.91h12.68l-2.85,3.64h-9.83v2.18H95.26z"/>
		<path class="st0" d="M121.09,69.05h-14.02c-1.36,0-2.62-0.17-3.8-0.51s-2.2-0.85-3.07-1.52s-1.55-1.5-2.04-2.5
			c-0.49-1-0.74-2.16-0.74-3.48c0-2.85,0.97-4.94,2.92-6.27c1.95-1.32,4.87-1.99,8.78-1.99c3.89,0,6.81,0.66,8.77,1.99
			c1.95,1.32,2.93,3.41,2.93,6.27c0,1.04-0.23,1.93-0.69,2.68h-5.31c0.38-0.29,0.66-0.65,0.83-1.1c0.17-0.45,0.25-0.97,0.25-1.58
			c0-0.86-0.12-1.56-0.36-2.09s-0.63-0.95-1.16-1.24c-0.53-0.29-1.23-0.49-2.09-0.6c-0.86-0.1-1.91-0.16-3.16-0.16
			c-1.24,0-2.3,0.05-3.16,0.16c-0.86,0.1-1.56,0.3-2.09,0.6s-0.92,0.71-1.16,1.24c-0.24,0.53-0.36,1.23-0.36,2.09
			c0,0.75,0.11,1.37,0.32,1.87c0.22,0.49,0.53,0.89,0.93,1.2c0.41,0.3,0.9,0.52,1.49,0.65c0.59,0.13,1.25,0.19,1.99,0.19h1.03
			c0.32,0,0.65,0,0.99,0.01s0.66,0.03,0.94,0.06c-0.24-0.16-0.52-0.35-0.84-0.57s-0.61-0.45-0.88-0.67l-2.03-1.58h6.46L121.09,69.05
			z"/>
		<path class="st0" d="M139.1,59.44c1.96,0,3.45,0.36,4.47,1.09s1.53,1.82,1.53,3.29c0,0.81-0.13,1.55-0.38,2.2
			c-0.26,0.65-0.66,1.2-1.22,1.65s-1.27,0.79-2.14,1.03s-1.91,0.36-3.12,0.36h-14.9l3.18-4.11h12.1c0.59,0,1.02-0.09,1.29-0.28
			c0.27-0.18,0.41-0.48,0.41-0.9c0-0.41-0.14-0.71-0.41-0.88c-0.27-0.18-0.7-0.26-1.29-0.26h-8.71c-1.04,0-1.93-0.11-2.68-0.33
			s-1.37-0.53-1.87-0.93c-0.49-0.4-0.86-0.88-1.1-1.45c-0.24-0.57-0.36-1.19-0.36-1.88c0-0.75,0.13-1.43,0.39-2.04
			s0.67-1.14,1.22-1.57c0.55-0.43,1.26-0.77,2.13-1c0.87-0.24,1.91-0.36,3.12-0.36h13.9l-3.18,4.16h-11.1c-0.57,0-1,0.08-1.28,0.24
			s-0.42,0.45-0.42,0.86s0.14,0.71,0.42,0.87c0.28,0.17,0.71,0.25,1.28,0.25L139.1,59.44L139.1,59.44z"/>
		<path class="st0" d="M166.7,53.05l-3.2,4.16h-5.72v11.84h-4.95V57.21h-7.51l3.2-4.16H166.7z"/>
		<path class="st0" d="M171.57,69.05l2.99-4.11h4.02c0.48,0,0.98,0,1.49,0c0.52,0,0.97,0.02,1.35,0.05
			c-0.22-0.29-0.48-0.65-0.78-1.09c-0.3-0.44-0.58-0.85-0.85-1.23l-2.87-4.23l-7.51,10.62h-5.86l10.26-14.47
			c0.33-0.46,0.76-0.88,1.27-1.24c0.51-0.37,1.16-0.55,1.94-0.55c0.75,0,1.38,0.17,1.88,0.51s0.93,0.77,1.28,1.28l10,14.47
			L171.57,69.05L171.57,69.05z"/>
		<path class="st0" d="M215.6,69.05h-6.62l-3.56-4.23h-7.61v4.23h-4.95v-8.18h13.92c0.77,0,1.41-0.16,1.94-0.48
			c0.53-0.32,0.79-0.76,0.79-1.32c0-0.62-0.24-1.09-0.72-1.4s-1.15-0.47-2.01-0.47h-13.92l3.23-4.16h10.28
			c0.91,0,1.85,0.08,2.82,0.25s1.86,0.47,2.65,0.9c0.8,0.43,1.45,1.01,1.97,1.75c0.52,0.73,0.78,1.67,0.78,2.82
			c0,0.62-0.1,1.21-0.29,1.77c-0.19,0.56-0.47,1.06-0.83,1.51s-0.8,0.83-1.32,1.14s-1.1,0.53-1.76,0.66
			c0.27,0.21,0.57,0.47,0.91,0.79c0.33,0.32,0.78,0.76,1.34,1.32L215.6,69.05z"/>
	</g>
	<g>
		<polygon class="st1" points="61.12,40.88 57.95,40.07 54.98,39.31 46.57,37.16 54.17,14.9 57.74,28.22 		"/>
		<polygon class="st2" points="87.85,40.42 87.84,40.42 87.83,40.43 71.72,52.01 68.95,54 68.76,53.72 66.89,50.88 64.66,47.52 
			64.55,47.55 65.86,51.44 66.23,52.52 66.98,54.75 67.16,55.28 67.14,55.3 64.27,57.37 58.14,61.77 32.72,80.05 34.62,73.47 
			36.4,67.31 38.53,59.91 48.03,55.02 53.75,57.96 54.96,58.59 50.25,53.88 59.59,49.07 64.25,46.66 66.57,45.47 87.82,40.42 
			87.82,40.42 		"/>
		<polygon class="st1" points="45.2,53.47 45.09,53.5 45,53.46 		"/>
		<polygon class="st1" points="67.93,57.56 67.9,57.56 67.14,55.3 64.52,47.56 64.35,47.05 64.41,47.15 64.66,47.52 64.55,47.55 
			67.16,55.28 		"/>
		<polygon class="st3" points="61.12,40.88 54.98,39.31 54.17,14.9 		"/>
		<polygon class="st3" points="65.28,53.67 66.23,52.52 64.27,57.37 58.14,61.77 32.72,80.05 36.4,67.31 53.75,57.96 54.13,57.76 
			65.86,51.44 		"/>
		<polygon class="st3" points="87.83,40.43 68.95,54 66.89,50.88 		"/>
		<polygon class="st3" points="61.12,40.88 57.95,40.07 57.74,28.22 		"/>
		<polygon class="st3" points="66.98,54.75 67.16,55.28 67.14,55.3 64.27,57.37 58.14,61.77 32.72,80.05 34.62,73.47 		"/>
		<polygon class="st0" points="75.08,78.71 45.21,48.84 57.98,47.38 64.25,46.66 64.32,46.88 64.41,47.15 64.55,47.55 67.16,55.28 
			67.93,57.56 71.59,68.38 71.59,68.38 		"/>
		<polygon class="st4" points="75.08,78.71 57.98,47.38 64.25,46.66 64.41,47.15 64.55,47.55 67.16,55.28 67.93,57.56 		"/>
		<polygon class="st4" points="71.59,68.38 62.17,48.28 64.32,46.88 64.41,47.15 64.55,47.55 67.16,55.28 67.93,57.56 		"/>
		<polygon class="st0" points="87.85,40.42 87.83,40.43 64.66,47.52 64.55,47.55 64.52,47.56 59.59,49.07 48.75,52.38 45.21,53.47 
			45.2,53.47 45.09,53.5 39.12,55.33 28.93,46.83 26.16,44.52 19.96,39.34 55.48,39.91 80.96,40.31 		"/>
		<polygon class="st4" points="80.96,40.31 28.93,46.83 19.96,39.34 		"/>
		<polygon class="st4" points="55.48,39.91 26.16,44.52 19.96,39.34 		"/>
	</g>
	<g>
		<polygon class="st1" points="231.84,57.04 234.6,52.92 238.57,52.92 235.43,57.04 		"/>
		<polygon class="st2" points="227.17,57.04 229.92,52.92 233.46,52.92 230.7,57.04 		"/>
		<path class="st0" d="M239,63.56c0,0.8-0.12,1.53-0.38,2.18c-0.25,0.64-0.65,1.19-1.21,1.63c-0.55,0.44-1.26,0.78-2.12,1.02
			s-1.89,0.36-3.09,0.36h-14.74l3.15-4.07h11.97c0.58,0,1.01-0.09,1.28-0.27c0.27-0.18,0.4-0.48,0.4-0.89s-0.13-0.7-0.4-0.88
			c-0.27-0.17-0.69-0.26-1.28-0.26h-8.61c-1.03,0-1.91-0.11-2.65-0.33c-0.74-0.22-1.36-0.53-1.84-0.92
			c-0.49-0.4-0.85-0.87-1.09-1.43c-0.23-0.56-0.36-1.18-0.36-1.86c0-0.74,0.13-1.42,0.39-2.02c0.26-0.61,0.66-1.12,1.21-1.55
			c0.55-0.43,1.25-0.76,2.11-0.99c0.86-0.24,1.89-0.36,3.09-0.36h3.95l-2.76,4.12h-1.57c-0.57,0-0.99,0.08-1.27,0.23
			c-0.28,0.16-0.41,0.44-0.41,0.85s0.14,0.7,0.41,0.86c0.28,0.17,0.7,0.25,1.27,0.25h8.61c1.94,0,3.41,0.36,4.42,1.08
			C238.5,61.03,239,62.11,239,63.56z"/>
	</g>
</g>
<g id="Layer_2_1_">
	<path class="st5" d="M485.66,101.04c-0.01,0.7-0.57,1.27-1.27,1.28h-83.57c-0.7-0.01-1.27-0.57-1.28-1.28v-17.6
		c0.01-0.7,0.57-1.27,1.28-1.28h83.6c0.7,0.01,1.27,0.57,1.27,1.28L485.66,101.04z"/>
	<path class="st6" d="M412.55,89.05c-0.03,0.05-0.06,0.1-0.11,0.15c-0.04,0.04-0.07,0.04-0.15,0.04c-0.08-0.01-0.16-0.04-0.22-0.11
		c-0.1-0.08-0.21-0.15-0.33-0.22c-0.16-0.09-0.33-0.16-0.51-0.22c-0.22-0.08-0.46-0.11-0.69-0.11c-0.24,0-0.47,0.03-0.69,0.11
		c-0.18,0.08-0.35,0.17-0.51,0.29c-0.14,0.11-0.24,0.27-0.29,0.44c-0.07,0.16-0.11,0.33-0.11,0.51c-0.01,0.21,0.06,0.41,0.18,0.58
		s0.29,0.31,0.47,0.4c0.2,0.13,0.43,0.22,0.66,0.29c0.26,0.07,0.51,0.18,0.77,0.26c0.26,0.08,0.52,0.18,0.77,0.29
		c0.24,0.1,0.46,0.24,0.66,0.4c0.2,0.17,0.36,0.38,0.47,0.62c0.12,0.29,0.19,0.6,0.18,0.91c0,0.36-0.07,0.72-0.18,1.06
		c-0.14,0.32-0.32,0.61-0.55,0.87c-0.25,0.26-0.57,0.46-0.91,0.58c-0.38,0.15-0.79,0.22-1.2,0.22c-0.52,0-1.04-0.1-1.53-0.29
		c-0.43-0.2-0.82-0.47-1.17-0.8l0.33-0.55l0.11-0.11c0.04-0.03,0.09-0.04,0.15-0.04c0.11,0.01,0.22,0.06,0.29,0.15
		c0.11,0.07,0.26,0.18,0.4,0.29c0.18,0.13,0.38,0.22,0.58,0.29c0.27,0.09,0.55,0.14,0.84,0.15c0.25,0.01,0.49-0.03,0.73-0.11
		c0.21-0.06,0.39-0.18,0.55-0.33c0.15-0.14,0.26-0.32,0.33-0.51c0.08-0.21,0.11-0.43,0.11-0.66c0.01-0.44-0.25-0.84-0.66-1.02
		c-0.2-0.13-0.43-0.22-0.66-0.29c-0.26-0.07-0.52-0.15-0.77-0.25c-0.26-0.08-0.52-0.18-0.77-0.29c-0.24-0.1-0.46-0.24-0.66-0.4
		c-0.19-0.2-0.35-0.42-0.47-0.66c-0.12-0.3-0.19-0.62-0.18-0.95c0.01-0.3,0.07-0.6,0.18-0.87c0.24-0.6,0.73-1.07,1.35-1.28
		c0.36-0.14,0.74-0.2,1.13-0.18c0.45,0,0.89,0.07,1.31,0.22c0.38,0.14,0.73,0.36,1.02,0.66L412.55,89.05z"/>
	<path class="st6" d="M415.72,88.32c-0.01,0.1-0.03,0.2-0.07,0.29c-0.05,0.09-0.11,0.18-0.18,0.26c-0.07,0.07-0.16,0.12-0.26,0.15
		c-0.18,0.1-0.4,0.1-0.58,0c-0.07-0.04-0.18-0.11-0.26-0.15c-0.07-0.08-0.13-0.16-0.18-0.26c-0.1-0.18-0.1-0.4,0-0.58
		c0.04-0.1,0.1-0.19,0.18-0.26c0.07-0.07,0.16-0.12,0.26-0.15c0.18-0.1,0.4-0.1,0.58,0c0.07,0.04,0.18,0.11,0.26,0.15
		c0.07,0.08,0.13,0.16,0.18,0.26C415.71,88.11,415.74,88.22,415.72,88.32z M415.5,90.22v6.05h-1.06v-6.05H415.5z"/>
	<path class="st6" d="M418.56,87.48v8.78h-1.06v-8.78H418.56z"/>
	<path class="st6" d="M419.65,90.22h0.87c0.08,0.01,0.15,0.03,0.22,0.07c0.06,0.03,0.1,0.08,0.11,0.15l1.53,3.9
		c0.06,0.14,0.11,0.29,0.15,0.44c0.04,0.14,0.07,0.29,0.07,0.44l0.11-0.44c0.03-0.15,0.08-0.3,0.15-0.44l1.57-3.9
		c0.03-0.05,0.06-0.1,0.11-0.15c0.05-0.05,0.11-0.07,0.18-0.07h0.84l-2.48,6.05h-0.95L419.65,90.22z"/>
	<path class="st6" d="M428.76,90.11c0.35,0,0.69,0.07,1.02,0.18c0.3,0.11,0.57,0.29,0.8,0.51c0.23,0.24,0.41,0.52,0.51,0.84
		c0.12,0.38,0.18,0.77,0.18,1.17c0,0.18,0,0.29-0.04,0.33c-0.06,0.05-0.14,0.08-0.22,0.07H427c0,0.33,0.05,0.66,0.15,0.98
		c0.08,0.26,0.22,0.49,0.4,0.69c0.17,0.18,0.37,0.32,0.58,0.44c0.24,0.11,0.5,0.16,0.77,0.15c0.24,0.01,0.47-0.03,0.69-0.11
		c0.17-0.07,0.34-0.13,0.51-0.18c0.12-0.07,0.24-0.13,0.36-0.18c0.07-0.06,0.16-0.1,0.26-0.11c0.08,0.01,0.16,0.04,0.22,0.11
		l0.29,0.4c-0.14,0.15-0.3,0.29-0.47,0.4c-0.18,0.12-0.38,0.22-0.58,0.29c-0.21,0.08-0.43,0.14-0.66,0.18
		c-0.22,0.04-0.44,0.07-0.66,0.07c-0.4,0-0.79-0.07-1.17-0.22c-0.34-0.14-0.65-0.35-0.91-0.62c-0.28-0.29-0.48-0.64-0.58-1.02
		c-0.15-0.45-0.23-0.91-0.22-1.38c0-0.4,0.06-0.79,0.18-1.17c0.13-0.34,0.31-0.66,0.55-0.95c0.25-0.26,0.55-0.47,0.87-0.62
		C427.96,90.2,428.36,90.11,428.76,90.11z M428.8,90.91c-0.44-0.02-0.88,0.13-1.2,0.44c-0.32,0.34-0.51,0.78-0.55,1.24h3.28
		c0-0.24-0.03-0.47-0.11-0.69c-0.07-0.2-0.17-0.38-0.29-0.55c-0.14-0.14-0.3-0.26-0.47-0.36C429.24,90.93,429.02,90.91,428.8,90.91z
		"/>
	<path class="st6" d="M432.62,96.26v-6.05h0.62c0.09,0,0.18,0.03,0.26,0.07c0.05,0.06,0.08,0.14,0.07,0.22l0.07,0.95
		c0.18-0.38,0.44-0.72,0.77-0.98c0.3-0.23,0.67-0.36,1.06-0.36c0.15,0,0.3,0.02,0.44,0.07c0.13,0.03,0.25,0.08,0.36,0.15l-0.15,0.8
		c-0.04,0.11-0.07,0.15-0.18,0.15c-0.09-0.02-0.17-0.04-0.26-0.07c-0.15-0.05-0.31-0.07-0.47-0.07c-0.33-0.02-0.66,0.1-0.91,0.33
		c-0.29,0.25-0.51,0.58-0.62,0.95v3.86h-1.06V96.26z"/>
	<path class="st6" d="M441.18,93.06v3.21h-1.17v-8.56h2.51c0.48,0,0.96,0.06,1.42,0.18c0.37,0.09,0.71,0.28,0.98,0.55
		c0.27,0.22,0.47,0.51,0.58,0.84c0.26,0.71,0.24,1.49-0.04,2.19c-0.13,0.33-0.34,0.62-0.62,0.84c-0.28,0.26-0.62,0.45-0.98,0.55
		c-0.45,0.14-0.92,0.2-1.38,0.18L441.18,93.06L441.18,93.06z M441.18,92.15h1.38c0.3,0.01,0.6-0.04,0.87-0.15
		c0.23-0.07,0.45-0.19,0.62-0.36c0.17-0.15,0.31-0.34,0.4-0.55c0.09-0.23,0.14-0.48,0.15-0.73c0.02-0.48-0.16-0.94-0.51-1.28
		c-0.43-0.34-0.98-0.51-1.53-0.47h-1.38L441.18,92.15L441.18,92.15z"/>
	<path class="st6" d="M451.17,96.26h-0.47c-0.09,0.01-0.17,0-0.26-0.04c-0.08-0.04-0.12-0.13-0.11-0.22l-0.11-0.55
		c-0.15,0.15-0.33,0.26-0.47,0.4c-0.15,0.11-0.31,0.21-0.47,0.29c-0.17,0.09-0.36,0.15-0.55,0.18c-0.2,0.04-0.41,0.07-0.62,0.07
		c-0.22,0-0.44-0.04-0.66-0.11c-0.2-0.07-0.38-0.17-0.55-0.29c-0.15-0.15-0.27-0.32-0.36-0.51c-0.09-0.23-0.14-0.48-0.15-0.73
		c0-0.24,0.07-0.48,0.18-0.69c0.16-0.24,0.37-0.44,0.62-0.58c0.36-0.21,0.76-0.35,1.17-0.44c0.57-0.13,1.16-0.19,1.75-0.18v-0.47
		c0.03-0.37-0.08-0.75-0.29-1.06c-0.22-0.25-0.54-0.38-0.87-0.36c-0.22-0.01-0.45,0.03-0.66,0.11c-0.18,0.07-0.33,0.15-0.47,0.22
		c-0.12,0.06-0.23,0.13-0.33,0.22c-0.08,0.07-0.18,0.11-0.29,0.11c-0.07,0-0.13-0.03-0.18-0.07c-0.04-0.04-0.11-0.07-0.15-0.15
		l-0.18-0.33c0.63-0.63,1.48-0.98,2.37-0.98c0.31,0,0.62,0.06,0.91,0.18c0.25,0.1,0.48,0.26,0.66,0.47c0.2,0.2,0.33,0.45,0.4,0.73
		c0.11,0.3,0.16,0.63,0.15,0.95L451.17,96.26L451.17,96.26z M448.43,95.61c0.17,0,0.34-0.03,0.51-0.07
		c0.15-0.04,0.29-0.11,0.44-0.15c0.14-0.07,0.28-0.16,0.4-0.26c0.11-0.11,0.26-0.22,0.36-0.33v-1.24c-0.42-0.01-0.83,0.03-1.24,0.11
		c-0.29,0.05-0.57,0.14-0.84,0.26c-0.18,0.08-0.35,0.21-0.47,0.36c-0.1,0.14-0.15,0.3-0.15,0.47c0,0.14,0.03,0.27,0.07,0.4
		c0.04,0.12,0.12,0.22,0.22,0.29c0.09,0.09,0.2,0.14,0.33,0.15L448.43,95.61z"/>
	<path class="st6" d="M452.77,96.26v-6.05h0.62c0.09,0,0.18,0.03,0.26,0.07c0.05,0.06,0.08,0.14,0.07,0.22l0.07,0.95
		c0.18-0.38,0.44-0.72,0.77-0.98c0.3-0.23,0.67-0.36,1.06-0.36c0.15,0,0.3,0.02,0.44,0.07c0.13,0.03,0.25,0.08,0.36,0.15l-0.15,0.8
		c-0.04,0.11-0.07,0.15-0.18,0.15c-0.09-0.01-0.17-0.04-0.26-0.07c-0.15-0.05-0.31-0.07-0.47-0.07c-0.33-0.02-0.66,0.1-0.91,0.33
		c-0.29,0.25-0.51,0.58-0.62,0.95v3.86h-1.06V96.26z"/>
	<path class="st6" d="M459.44,96.37c-0.4,0.02-0.8-0.12-1.09-0.4c-0.28-0.32-0.43-0.74-0.4-1.17v-3.72h-0.73
		c-0.06,0-0.11-0.03-0.15-0.07c-0.05-0.05-0.07-0.11-0.07-0.18v-0.44l0.98-0.11l0.26-1.86c0-0.06,0.03-0.11,0.07-0.15
		c0.05-0.05,0.11-0.07,0.18-0.07h0.55v2.08h1.75v0.77h-1.75v3.64c-0.01,0.21,0.06,0.41,0.18,0.58c0.13,0.12,0.3,0.18,0.47,0.18
		c0.1,0.01,0.2,0,0.29-0.04l0.22-0.11c0.05-0.03,0.1-0.06,0.15-0.11c0.03-0.03,0.07-0.04,0.11-0.04c0.06,0.01,0.12,0.05,0.15,0.11
		l0.33,0.51c-0.19,0.18-0.41,0.31-0.66,0.4C460.01,96.3,459.72,96.36,459.44,96.37z"/>
	<path class="st6" d="M462.06,96.26v-6.05h0.62c0.14-0.01,0.26,0.08,0.29,0.22l0.07,0.66c0.25-0.28,0.54-0.51,0.87-0.69
		c0.35-0.18,0.74-0.27,1.13-0.26c0.3-0.01,0.6,0.04,0.87,0.15c0.25,0.09,0.46,0.26,0.62,0.47c0.18,0.22,0.31,0.46,0.4,0.73
		c0.09,0.31,0.14,0.63,0.15,0.95v3.86h-1.06v-3.86c0.03-0.38-0.09-0.76-0.33-1.06c-0.24-0.26-0.59-0.4-0.95-0.36
		c-0.31-0.01-0.61,0.07-0.87,0.22c-0.28,0.17-0.54,0.38-0.77,0.62v4.44L462.06,96.26L462.06,96.26z"/>
	<path class="st6" d="M471.06,90.11c0.35,0,0.69,0.07,1.02,0.18c0.3,0.11,0.57,0.29,0.8,0.51c0.23,0.24,0.41,0.52,0.51,0.84
		c0.12,0.38,0.18,0.77,0.18,1.17c0,0.11-0.02,0.22-0.04,0.33c-0.06,0.05-0.14,0.08-0.22,0.07h-4.01c0,0.33,0.05,0.66,0.15,0.98
		c0.07,0.26,0.21,0.5,0.4,0.69c0.17,0.18,0.37,0.32,0.58,0.44c0.24,0.11,0.5,0.16,0.77,0.15c0.24,0.01,0.47-0.03,0.69-0.11
		c0.17-0.07,0.34-0.13,0.51-0.18c0.12-0.07,0.24-0.13,0.36-0.18c0.07-0.06,0.16-0.1,0.26-0.11c0.08,0.01,0.16,0.04,0.22,0.11
		l0.29,0.4c-0.14,0.15-0.3,0.29-0.47,0.4c-0.18,0.12-0.38,0.22-0.58,0.29c-0.21,0.08-0.43,0.14-0.66,0.18
		c-0.22,0.04-0.44,0.07-0.66,0.07c-0.4,0-0.79-0.07-1.17-0.22c-0.34-0.14-0.65-0.35-0.91-0.62c-0.28-0.29-0.48-0.64-0.58-1.02
		c-0.15-0.45-0.23-0.91-0.22-1.38c0-0.4,0.06-0.79,0.18-1.17c0.13-0.34,0.31-0.66,0.55-0.95c0.25-0.26,0.55-0.47,0.87-0.62
		C470.25,90.18,470.65,90.1,471.06,90.11z M471.09,90.91c-0.44-0.02-0.88,0.13-1.2,0.44c-0.32,0.34-0.51,0.78-0.55,1.24h3.28
		c0-0.24-0.03-0.47-0.11-0.69c-0.07-0.2-0.17-0.38-0.29-0.55c-0.14-0.14-0.3-0.26-0.47-0.36C471.53,90.93,471.31,90.91,471.09,90.91
		L471.09,90.91z"/>
	<path class="st6" d="M474.92,96.26v-6.05h0.62c0.09,0,0.18,0.03,0.26,0.07c0.05,0.06,0.08,0.14,0.07,0.22l0.07,0.95
		c0.18-0.38,0.44-0.72,0.77-0.98c0.3-0.23,0.67-0.36,1.06-0.36c0.15,0,0.3,0.02,0.44,0.07c0.13,0.03,0.25,0.08,0.36,0.15l-0.15,0.8
		c-0.04,0.11-0.07,0.15-0.18,0.15c-0.09-0.01-0.17-0.04-0.26-0.07c-0.15-0.05-0.31-0.07-0.47-0.07c-0.33-0.02-0.66,0.1-0.91,0.33
		c-0.29,0.25-0.51,0.58-0.62,0.95v3.86h-1.06V96.26z"/>
	<path class="st7" d="M468.07,39.73c-10.06,0-18.21,8.15-18.21,18.21s8.15,18.21,18.21,18.21s18.21-8.15,18.21-18.21
		S478.13,39.73,468.07,39.73z M468.07,68.87c-6.04,0-10.93-4.89-10.93-10.93c0-6.04,4.89-10.93,10.93-10.93
		c6.04,0,10.93,4.89,10.93,10.93l0,0C479,63.98,474.1,68.87,468.07,68.87z"/>
	<path class="st7" d="M429.82,39.73c-10.06,0-18.21,8.15-18.21,18.21s8.15,18.21,18.21,18.21s18.21-8.15,18.21-18.21
		S439.88,39.73,429.82,39.73z M429.82,68.87c-6.04,0-10.93-4.89-10.93-10.93c0-6.04,4.89-10.93,10.93-10.93
		c6.04,0,10.93,4.89,10.93,10.93l0,0C440.75,63.98,435.85,68.87,429.82,68.87z"/>
	<path class="st8" d="M353.32,39.73c-10.06,0-18.21,8.15-18.21,18.21s8.15,18.21,18.21,18.21s18.21-8.15,18.21-18.21l0,0
		C371.53,47.88,363.38,39.73,353.32,39.73z M353.32,68.87c-6.04,0-10.93-4.89-10.93-10.93c0-6.04,4.89-10.93,10.93-10.93
		c6.04,0,10.93,4.89,10.93,10.93l0,0C364.25,63.98,359.35,68.87,353.32,68.87z"/>
	<path class="st7" d="M406.14,28.76c-2.01,0-3.64,1.63-3.64,3.64v10.93c-8.05-6.04-19.46-4.4-25.5,3.64
		c-6.04,8.05-4.4,19.46,3.64,25.5c8.05,6.04,19.46,4.4,25.5-3.64c2.36-3.14,3.63-6.96,3.64-10.89l0,0V32.4
		C409.78,30.39,408.15,28.76,406.14,28.76z M391.57,68.83c-6.04,0-10.93-4.89-10.93-10.93s4.89-10.93,10.93-10.93
		c6.04,0,10.93,4.89,10.93,10.93l0,0C402.5,63.94,397.6,68.83,391.57,68.83z"/>
</g>
<g id="Layer_3">
	
		<linearGradient id="SVGID_1_" gradientUnits="userSpaceOnUse" x1="285" y1="12.7601" x2="285" y2="91.7601" gradientTransform="matrix(1 0 0 -1 0 109.5202)">
		<stop  offset="0" style="stop-color:#FFFFFF"/>
		<stop  offset="0.2447" style="stop-color:#787878"/>
		<stop  offset="0.4629" style="stop-color:#3B3B3B"/>
		<stop  offset="0.7417" style="stop-color:#868686"/>
		<stop  offset="0.9948" style="stop-color:#FFFFFF"/>
	</linearGradient>
	<path class="st9" d="M285,17.76L285,17.76c0.55,0,1,0.45,1,1v77c0,0.55-0.45,1-1,1l0,0c-0.55,0-1-0.45-1-1v-77
		C284,18.21,284.45,17.76,285,17.76z"/>
</g>
</svg>
